<?xml version="1.0" encoding="UTF-8"?>
<!DOCTYPE svg PUBLIC "-//W3C//DTD SVG 1.1//EN" "http://www.w3.org/Graphics/SVG/1.1/DTD/svg11.dtd">
<!-- Creator: CorelDRAW X8 -->
<svg xmlns="http://www.w3.org/2000/svg" xml:space="preserve" width="819px" height="149px" version="1.1" style="shape-rendering:geometricPrecision; text-rendering:geometricPrecision; image-rendering:optimizeQuality; fill-rule:evenodd; clip-rule:evenodd"
viewBox="0 0 587317 107111"
 xmlns:xlink="http://www.w3.org/1999/xlink">
 <defs>
  <style type="text/css">
   <![CDATA[
    .fil1 {fill:#BF9037}
    .fil2 {fill:#BF9037}
    .fil0 {fill:white}
   ]]>
  </style>
 </defs>
 <g id="Слой_x0020_1">
  <metadata id="CorelCorpID_0Corel-Layer"/>
  <path class="fil0" d="M0 564l0 105542c0,386 116,503 502,503l45565 0c1047,0 -108,-1616 1626,-3400 1959,-2016 5137,-1459 8761,-1459l0 -4690c6140,0 4894,913 5898,-3483 556,-2435 950,-5796 1148,-8401 429,-5632 341,-12018 -1012,-17605 -317,-1311 -710,-2568 -1009,-3849l-3183 0 0 -4189 3016 0 939 -4086c1620,-7094 2166,-16032 781,-23266l-1456 -6083c-208,-726 -439,-1225 -599,-1913 -1561,0 -3141,26 -4698,7 -950,-12 -1158,-179 -2165,-180l-4700 -158c-1029,7 -1294,-153 -2169,-177l-22285 -1837c-280,583 -308,1154 -1005,1340 0,1261 8407,23442 9151,25527 650,1823 5591,14903 5591,15517 0,1269 -4927,4499 -6435,5125 -6651,2759 -11224,3048 -18045,593 -1882,-678 -4843,-2465 -6138,-3746 -1500,-1485 -1938,-1559 -1452,-2874 249,-674 433,-1160 695,-1827l4715 -12708c464,-1241 952,-2502 1344,-3682l1982 -5389c1240,-3157 5212,-14562 6079,-16368 -3255,-2181 1123,-7040 3518,-2513 676,-158 1292,-153 2083,-263l11161 -1068c1558,-119 3118,-163 4538,-320l9259 -457c2303,-348 7216,-70 9813,-70 387,-731 569,-1148 1675,-1173 0,-1778 -282,-2844 -46,-4569 206,-1502 97,-3026 309,-4550l979 -6224c143,-723 381,-1453 433,-2080l-61479 0c-1584,0 -3685,-320 -3685,503z"/>
  <path class="fil1" d="M69520 17484c1053,88 1227,504 1675,1173 2557,0 7377,-273 9645,70 1831,278 7131,267 9276,441 1439,117 2954,216 4522,336l13411 1331c691,-2968 4523,-1823 4523,167 0,993 15,1662 -1005,2346 385,1651 12001,32558 14052,38215 1007,2778 1769,2782 -1917,5583l-3646 2217c-6107,2808 -11942,2972 -18158,510 -2866,-1136 -5353,-2805 -7302,-4932 -596,-651 -435,-969 -121,-1722 483,-1156 932,-2456 1366,-3664l3951 -10792c1774,-4519 3530,-9994 5291,-14477l3971 -10938c-540,-362 -935,-672 -1005,-1508 -1373,0 -6442,741 -8710,839 -767,33 -1290,110 -2166,179 -592,46 -1422,101 -2165,180 -603,64 -1423,86 -2178,167 -2457,264 -10984,826 -13596,810 -1077,-6 -1447,149 -2338,176 -1584,47 -3267,-6 -4863,-6 -639,1208 -1635,5406 -1941,6938 -1767,8832 -939,18175 1170,26836 459,1885 -218,1574 3451,1574 0,5087 755,4189 -3183,4189 -1758,3664 -2345,12744 -2345,17255 0,2949 301,5797 660,8386l1081 5788c159,633 386,1299 437,1909l5025 0 0 4690c3769,0 8622,-823 9807,3092 220,726 47,1767 747,1767l44727 0c386,0 502,-117 502,-503l0 -105542c0,-386 -116,-503 -502,-503l-63824 0c0,750 187,1396 335,2011 1265,5276 1340,10083 1340,15412z"/>
  <path class="fil0" d="M435379 14804l4222 1305c614,141 1306,102 1306,705l0 40374c-907,0 -2284,359 -3091,594 -2987,871 -2437,757 -2437,3092l17421 0 0 -2178c-761,-178 -2747,-1034 -4022,-1338 -570,-136 -1171,-65 -1171,-672l0 -40375 20773 0 0 40877c-740,16 -5026,934 -5026,1843l0 1843 17422 0 0 -2178c-837,-195 -1603,-661 -2581,-937 -824,-232 -2039,-571 -2947,-571l0 -40877c2140,0 4426,-1251 5528,-1507l0 -2178 -45397 0 0 2178z"/>
  <path class="fil0" d="M502218 58528c-1866,0 -3327,111 -5126,-401 -1297,-370 -1777,-791 -2412,-939 0,-5918 22,-11841 -1,-17758 -18,-4731 2929,-9549 8209,-9549 10991,0 10222,20646 3646,26765 -909,846 -2627,1882 -4316,1882zm-18427 -30490l0 1843c1421,118 2964,503 4523,503l0 40876c-1113,93 -2617,778 -3646,1212 -1030,434 -877,219 -877,2139l15412 0c0,-1604 558,-2055 -2657,-3039 -2088,-639 -1875,289 -1866,-2489 9,-2904 0,-5808 0,-8712 4002,1921 10407,1749 14353,-221 6321,-3154 8932,-9658 8932,-17369 0,-4939 -758,-9195 -2688,-12222 -3628,-5687 -12957,-6484 -16873,-2817 -2947,2760 -2933,4184 -3724,5322l0 -7539c-2096,0 -1665,-15 -3808,380 -2094,387 -5263,1261 -7081,2133z"/>
  <path class="fil0" d="M382778 58528c-6712,0 -5435,-850 -7538,-1340 0,-5917 31,-11843 -1,-17759 -24,-4398 2722,-9548 8209,-9548 9532,0 9351,14118 7166,21071 -170,538 -613,1717 -912,2271 -1315,2439 -3777,5305 -6924,5305zm-18259 -30490l0 1843 3560 460c562,70 963,-55 963,545l0 39872c0,689 -744,505 -2130,1053l-2393 957 0 1843 15411 0c0,-1498 411,-2007 -2697,-2998 -2158,-689 -2010,346 -1994,-2362 18,-2958 1,-5921 1,-8880 720,346 2074,793 2886,966 3592,769 8236,400 11355,-1131 2385,-1170 3249,-1934 4819,-3725 3489,-3981 4225,-8876 4225,-14873 0,-18388 -14885,-17815 -19551,-13856 -2458,2086 -3066,4544 -3734,5312l0 -7539c-3243,0 -7925,1034 -10721,2513z"/>
  <path class="fil0" d="M182427 14971c0,1886 -9,3842 192,5671l478 4548 2010 0c237,-1017 2069,-4980 2610,-6269 621,-1479 590,-2154 1680,-2676 3472,-1660 9480,-546 12535,831 4158,1874 6434,5284 7823,9432 586,1752 1317,5431 1317,7394l-19599 -168c-569,0 -577,657 -632,1043 -474,3329 79,2228 129,4486 3205,0 17004,-2011 20102,-2011 0,10445 -5886,20774 -16416,20774 -1432,0 -4579,-20 -5632,-399 -566,-203 -480,-158 -924,-1422 -204,-583 -417,-1306 -626,-1886l-2534 -7015 -1843 0c-324,3894 -1005,7794 -1005,12062 3464,1833 8289,2345 13234,2345 5261,0 9720,-1472 13568,-4188 694,-490 1006,-822 1636,-1380 1576,-1400 2964,-2953 4003,-4875 1707,-3155 2499,-5125 3123,-8939 598,-3651 442,-7427 102,-11093 -375,-4041 -2236,-9870 -5049,-12708 -2257,-2278 -3700,-3585 -6876,-4851 -5330,-2124 -12986,-2482 -18753,-1089 -1095,265 -4653,1387 -4653,2383z"/>
  <path class="fil0" d="M7873 63889l29483 0c-17,-778 -514,-1863 -788,-2562 -4038,-10283 -7916,-22231 -11992,-32570l-2129 -5074 -5457 14980c-338,875 -602,1669 -889,2462 -1465,4043 -3328,8691 -4648,12607 -596,1766 -1216,3271 -1842,5026 -371,1041 -1720,4330 -1738,5131z"/>
  <path class="fil1" d="M95988 63889l28645 0c814,0 270,-892 -216,-2129l-14023 -38077c-568,416 -4238,11044 -4787,12467 -360,933 -597,1681 -934,2585l-8887 24134c-167,466 -517,1020 202,1020z"/>
  <path class="fil0" d="M290476 28373c550,147 108,35 474,196 1099,484 2806,1284 4049,1312l0 27475c-5078,1183 -4523,1577 -4523,3518l14909 0c0,-2288 348,-1757 -1961,-2730 -1429,-601 -2227,-471 -2227,-1123l0 -27475 15076 0 0 27475c0,675 -625,451 -2156,1026 -2213,831 -1864,1139 -1864,2827l14909 0c0,-1827 593,-2327 -4523,-3518l0 -27475c2318,0 3617,-1266 4523,-1508l0 -2010 -36686 0 0 2010z"/>
  <path class="fil0" d="M223301 28373c756,176 1266,611 2112,904 705,245 1602,586 2411,604l0 27140c0,726 -663,384 -2347,1003 -2535,931 -2176,917 -2176,2850l15244 0c0,-1957 339,-1965 -2071,-2788 -1551,-529 -2452,-411 -2452,-1065l0 -12398c3436,0 2434,-479 4189,2010l7727 10701c567,711 1020,1370 1692,1993 274,254 2009,1547 2306,1547l7874 0c0,-2693 283,-1479 -2548,-3149 -1310,-773 -3210,-3173 -4176,-4367 -1506,-1860 -7477,-9294 -8727,-10538 -554,-552 -592,-505 -966,-1212l8503 -9255c343,-366 412,-536 754,-921 319,-359 542,-752 834,-1009 774,-682 4818,-1385 4818,-2385l0 -1675 -13401 0 0 2010 4020 1843c-2524,3771 -3649,4721 -6247,7825 -290,345 -536,514 -829,846 -640,725 -2341,2988 -3148,3218 -466,134 -2210,498 -2675,508l0 -12229c0,-987 3518,-1211 3518,-2513 0,-1078 149,-1508 -502,-1508l-13737 0 0 2010z"/>
  <path class="fil0" d="M529188 44791c0,-4134 35,-8337 1956,-11782 3290,-5903 11101,-5676 14664,20 3013,4818 3119,15944 527,21036 -995,1954 -3111,4463 -5923,4463 -4094,0 -6523,-807 -8881,-4353 -1361,-2046 -2343,-5938 -2343,-9384zm-6700 -2680c0,4539 83,8645 2543,12701 273,451 464,827 782,1229 3206,4055 6994,5670 13259,5670 3509,0 7066,-1091 9551,-3013 1077,-832 2374,-2068 3151,-3215 4568,-6745 4326,-18683 -755,-24985 -4611,-5718 -15055,-6601 -21822,-2284 -858,547 -1489,1225 -2228,1960 -1291,1284 -2527,3270 -3165,5045 -669,1866 -1316,4325 -1316,6892z"/>
  <path class="fil0" d="M353463 40603l-14910 0c0,-5098 1631,-11895 7874,-11895 2671,0 4162,382 5665,2711 1468,2278 1913,7969 1371,9184zm-5864 21108c3716,0 7550,-1050 10092,-3309 643,-572 1592,-1483 1802,-2387 -354,-529 -486,-508 -838,-1172 -5276,3533 -13915,3790 -17829,-1939 -248,-364 -350,-583 -568,-939 -401,-655 -649,-1275 -932,-2083 -831,-2372 -940,-3673 -940,-6264l21442 0c12,-516 128,-1022 220,-1622 264,-1731 236,-3732 106,-5573 -213,-3031 -1859,-6305 -4033,-8028 -6006,-4762 -16537,-3453 -20922,2320 -2248,2962 -2880,5414 -3398,9166 -364,2635 -289,5340 78,7899 1182,8256 6839,13931 15720,13931z"/>
  <path class="fil0" d="M403048 37755l1842 0c562,-1170 1010,-2764 1508,-4021l1508 -4188 6365 0 0 27475c0,599 -521,524 -1033,641 -4046,926 -3490,1632 -3490,3212l15245 0c0,-2153 333,-1948 -1946,-2746 -826,-289 -1761,-582 -2578,-772l0 -27810 6031 0c570,0 601,641 1027,1822 248,689 456,1354 745,2102 551,1426 970,3016 1579,4285l1842 0c576,-2472 838,-8527 838,-11392l-30321 0c0,1902 72,4125 289,5742 256,1905 155,3958 549,5650z"/>
  <path class="fil0" d="M259653 41775l0 3351c0,4727 1902,9409 4146,11936 4320,4861 13451,6043 18375,3048 1826,-1112 2558,-1723 3676,-3359l438 -568c-277,-413 -577,-784 -838,-1173 -604,161 -960,550 -1471,874 -1664,1055 -4072,1472 -6235,1472 -3757,0 -6537,-1845 -8261,-3968 -2767,-3406 -3130,-6727 -3130,-11277 0,-6119 2047,-13403 9046,-13403 4982,0 3242,84 5814,6583 938,2370 288,2296 2395,2296 1293,0 2512,-9042 2512,-9884 -4470,-2365 -12216,-2991 -17354,-937 -5992,2396 -9113,8827 -9113,15009z"/>
  <path class="fil0" d="M570901 30049c232,871 8405,11192 9548,12899 -222,331 -328,393 -599,741l-1841 2347c-884,1124 -1632,2062 -2513,3183l-4930 6294c313,468 1317,1367 1842,1508 914,-612 5620,-5348 6508,-6056l8401 -7849c-192,-719 -1113,-1362 -1633,-1885 -689,-694 -1255,-1078 -1927,-1758 -1157,-1171 -2397,-2540 -3602,-3602l-6478 -6254c-497,-380 -601,-412 -934,-909 -621,416 -1193,906 -1842,1341z"/>
  <path class="fil0" d="M148421 43116l14909 13905c816,-219 1042,-959 1843,-1173 -76,-904 -4268,-5925 -4860,-6699l-5024 -6536c2073,-3096 7519,-9367 9548,-12397 -232,-318 -1463,-1254 -1842,-1508 -347,519 -395,446 -862,814l-5488 5401c-2108,1939 -3450,3425 -5585,5304 -622,548 -2483,2304 -2639,2889z"/>
  <path class="fil0" d="M161655 42948c490,732 909,1073 1458,1725l6040 7027c854,961 4189,4613 4563,5321 955,-640 1241,-1180 1843,-1341 -139,-517 -596,-1128 -891,-1622 -365,-612 -660,-1058 -1004,-1677 -654,-1175 -1247,-2139 -1928,-3265l-3883 -6670c631,-944 1249,-2050 1833,-3025l3598 -6119c342,-581 618,-1026 944,-1569 269,-449 776,-1056 828,-1684 -543,-146 -1218,-843 -1843,-1173 -908,1357 -4589,5618 -5719,7013 -490,606 -915,1151 -1441,1742l-4398 5317z"/>
  <path class="fil0" d="M560682 30216c132,568 505,1041 807,1538l4627 7938c325,537 1752,2813 1720,3235l-5637 9412c-322,537 -582,1012 -946,1567 -310,469 -768,1091 -906,1607 290,433 1162,1203 1675,1340l11264 -12859c346,-370 520,-465 797,-878 -171,-641 -950,-1341 -1340,-1843l-8748 -10517c-543,-622 -1026,-1217 -1470,-1880 -484,129 -1634,1054 -1843,1340z"/>
  <path class="fil2" d="M382611 92201l0 0zm0 0c29,-1344 807,-2676 837,-4020 -1052,-557 -2440,-113 -3653,367 -564,222 -685,205 -702,973 276,133 1284,302 1675,335 -305,1307 -2345,10457 -2345,11727l2345 0 1559 -7320c510,-1120 1014,-1869 1717,-2806 626,-836 1385,-1769 2755,-1769 1035,1547 243,3389 -294,5906 -306,1440 -1214,4884 -1214,5989l2178 0 1766 -7280c708,-1810 2379,-4615 4599,-4615 1043,1557 234,3066 -436,5762 -558,2244 -1336,4111 -904,5965 1162,558 2545,287 3530,-322 519,-321 490,-391 490,-1185l-1842 0c37,-1683 2651,-8038 1974,-10517 -788,-2885 -4450,-1342 -6466,1669l-701 974c111,-1341 443,-2056 -210,-3309 -1063,-2039 -3709,-82 -4945,1169 -366,372 -597,692 -903,1108l-810 1199z"/>
  <path class="fil2" d="M496858 89856c3068,0 969,10219 -1341,10219 -507,0 -876,-1000 -1340,-1340 -1015,271 -1507,1345 -1507,2680 922,215 578,335 1842,335 2919,0 5116,-3709 5696,-6198l2345 0c-181,377 -1172,5372 -1172,6031l2177 0c120,-1434 1052,-4574 1173,-6031l2178 0c0,1470 -815,6198 2512,6198 2267,0 4164,-2815 2796,-2331 -75,27 -186,99 -380,199 -4102,2104 -2625,-7057 -953,-8969 392,-448 663,-900 1385,-961 126,472 644,1099 1005,1341 957,-256 1508,-1424 1508,-2681 -407,-95 -1088,-335 -1508,-335 -3442,0 -5821,4341 -5863,6199l-2345 0 970 -4738c320,-1442 467,-1293 -1640,-1293 -629,0 -535,659 -632,1210 -231,1306 -876,3823 -876,4821l-2345 0 168 -2848c0,-3194 -2822,-4564 -5333,-1976 -1853,1910 1146,468 1480,468z"/>
  <path class="fil2" d="M520980 100578c-3097,0 -2311,-6319 -1229,-8266 1825,-3284 5585,-3736 5585,57l0 1172c0,2734 -1781,7037 -4356,7037zm-2680 -8042l0 0zm0 0c55,-2456 1654,-5844 4625,-6766 1831,-568 3896,-553 4852,-844 1248,-380 2057,-2500 2082,-3614 -1773,0 -1192,1102 -3104,1420 -3832,636 -6300,635 -8681,5391 -816,1632 -1237,3400 -1526,5342 -108,728 -77,1436 -189,2159 -348,2251 535,5411 3103,6137 4510,1275 8714,-4198 8561,-9733 -143,-5180 -5730,-5715 -9253,-194l-470 702z"/>
  <path class="fil2" d="M240221 100578c-2576,0 -2346,-2729 -2346,-4691 0,-5410 4807,-7493 6035,-5365 1484,2570 -668,10056 -3689,10056zm-4859 -4691c0,2996 742,6031 4356,6031 8179,0 10177,-16836 2074,-13674 -1679,655 -2657,1736 -3657,3045 -274,359 -247,294 -479,693l-451 722c223,-2683 1617,-5878 4541,-6851 2274,-757 3298,-484 4839,-857 1400,-340 2179,-2216 2179,-3684 -1102,0 -738,57 -1483,695 -348,299 -566,501 -1035,640 -1671,495 -4730,-105 -7494,2893 -1964,2130 -3390,6280 -3390,10347z"/>
  <path class="fil2" d="M367534 100578c-1093,0 -1212,32 -2010,-503 20,-910 462,-2384 628,-3225 271,-1370 408,-1961 932,-3088 1854,-3981 5476,-6289 5476,-1058 0,3036 -2153,7874 -5026,7874zm-3853 -11392l0 502 1508 168 -1746 8473c-312,1403 -621,2856 -893,4133l-879 4314c1287,300 2477,168 4020,168 458,0 373,-57 483,-391 211,-641 -115,-568 -238,-672 -276,-233 -1103,-434 -1585,-445l838 -4021c4218,2232 10051,-2627 10051,-9884 0,-3759 -3638,-4844 -6162,-2142 -1023,1095 -1706,2588 -2047,2980 200,-2400 2490,-5306 -1493,-4174 -266,76 -768,217 -1030,310 -458,161 -827,163 -827,681z"/>
  <path class="fil2" d="M212245 100578c-2011,0 -2178,-1745 -2178,-3518 0,-3550 1629,-7707 5026,-7707 919,0 1322,343 2010,503l-354 3499c-165,925 -494,2233 -815,3038 -558,1397 -1917,4185 -3689,4185zm4858 -12230c-512,-42 -1210,-335 -1508,-335 -8490,0 -11035,13905 -4020,13905 6075,0 8834,-9576 7782,-15489 -422,-2376 -1525,-4949 -4432,-4949 -3074,0 -5437,2372 -3614,2115 31,-4 791,-352 1866,-525 3631,-583 3591,3842 3926,5278z"/>
  <path class="fil2" d="M424322 96892c17,-17 50,26 50,50l-50 -50zm-3853 3183c-3150,0 -731,-7034 -202,-7909 614,-1017 2017,-2813 3385,-2813 1274,0 1306,-126 2178,335 -76,908 -407,2206 -598,3255 -380,2085 -2802,7132 -4763,7132zm4188 -12062c-2777,0 -4789,1002 -6168,3045 -1568,2323 -2040,4191 -2040,7342 0,3689 3210,4803 5992,1804 359,-387 685,-886 976,-1370 352,-583 513,-1155 905,-1607 -32,1481 -2060,5943 2664,4172 354,-133 1189,-507 1189,-989 0,-768 -1187,-502 -2010,-502 225,-967 2345,-11082 2345,-12062 -2216,184 -1483,884 -2741,415 -451,-168 -553,-248 -1112,-248z"/>
  <path class="fil2" d="M539072 96892c17,-17 50,26 50,50l-50 -50zm-3853 3183c-3454,0 -711,-10722 3183,-10722 1274,0 1306,-126 2178,335 -84,1005 -395,2209 -600,3254 -528,2693 -2984,7133 -4761,7133zm4188 -12062c-2964,0 -4587,943 -6225,3156 -2105,2843 -3512,10749 865,10749 2786,0 4062,-3155 4747,-4299 201,-335 85,-169 278,-392 -28,1275 -2084,5951 2664,4172 353,-133 1189,-507 1189,-989 0,-768 -1187,-502 -2010,-502 157,-329 2345,-11379 2345,-12062 -848,70 -1372,330 -2003,507 -930,262 -453,-340 -1850,-340z"/>
  <path class="fil2" d="M334533 88851l0 837c842,0 750,151 1508,168 0,893 -329,2063 -489,2862l-1173 5863c-175,877 -516,2081 -516,3002l2345 0c20,-872 1273,-6753 1574,-7305 3259,-5963 5462,-4780 5462,-3752 0,5656 -3427,11224 -503,11224 972,0 3016,-506 3016,-1340l0 -502 -1843 0c0,-865 783,-3699 991,-4705 293,-1415 2290,-7357 -1326,-7357 -1916,0 -3643,1718 -4661,3212l-760 1251c-208,345 -61,149 -275,395 115,-1377 838,-2859 838,-4356 0,-1221 -3747,400 -4188,503z"/>
  <path class="fil2" d="M439064 95049c-1395,0 -3853,-126 -3853,-2178 0,-1943 1431,-3518 3518,-3518 842,0 750,151 1508,168 -169,351 -1160,4954 -1173,5528zm-6366 -2345c0,655 404,1519 730,1951 352,466 1004,922 1616,1064 -184,687 -2625,3288 -3466,3906 -972,713 -1727,-160 -1727,785 0,581 1040,1340 2010,1340 2577,0 4555,-5314 5569,-5654 162,-55 1270,-205 1467,-209 -257,535 -1081,3767 -671,5528 1069,513 2002,388 3122,-61 532,-212 798,-424 881,-794 36,-161 18,-477 18,-652l-1843 0c69,-825 367,-1918 545,-2806l1144 -5724c184,-920 489,-1956 489,-3030 -1089,-24 -2301,-335 -3518,-335 -3056,0 -6366,1684 -6366,4691z"/>
  <path class="fil2" d="M250942 89186l0 502c848,0 861,114 1507,168 -18,799 -355,2029 -516,2834 -321,1603 -1662,7712 -1662,8893 2560,0 2249,212 2505,-1181l1013 -5018 5026 0c-169,352 -1005,4707 -1005,5361 0,1766 4355,818 4355,-335 0,-768 -1187,-502 -2010,-502 216,-451 514,-2320 628,-2890 221,-1105 390,-1949 614,-3072l934 -4614c291,-1299 337,-1151 -1673,-1151 -758,0 -791,1703 -1018,2835 -209,1037 -417,2163 -658,3196l-4858 0c0,-1032 893,-4828 1173,-6031 -643,-150 -450,-308 -1109,-269 -607,36 -3246,503 -3246,1274z"/>
  <path class="fil2" d="M401372 89186l0 502 1508 168c0,893 -329,2063 -488,2862l-1173 5863c-175,877 -517,2081 -517,3002l2346 0c26,-1188 1155,-5411 1172,-6199l5026 0c-288,3460 -2452,6366 670,6366 805,0 2680,-601 2680,-1340l0 -502 -1842 0c0,-893 328,-2063 488,-2862 204,-1021 373,-1864 586,-2932 238,-1190 1103,-5072 1103,-5933 -2516,0 -2277,-238 -2559,1293 -93,505 -205,1061 -311,1700 -646,3898 237,3038 -5506,3038 0,-1151 1094,-5085 1173,-6031 -951,-254 -24,-346 -1074,-253 -837,75 -3282,470 -3282,1258z"/>
  <path class="fil2" d="M194153 89186l0 502c738,17 783,168 1675,168l3015 11559c0,1271 -1383,2987 -2177,3518 -978,-228 -1335,-808 -2178,-1005 -2138,1432 -1909,4054 1703,2876 1834,-597 3253,-2959 4194,-4517 569,-942 988,-1918 1475,-2881 250,-496 375,-815 621,-1390 238,-558 492,-959 716,-1461 533,-1198 2879,-6944 2921,-7959 50,-1188 -2569,-536 -3087,-415 301,3615 1349,1260 -812,7061 -267,718 -440,1229 -752,1928 -242,541 -734,1507 -781,2067l-335 0c0,-1571 -217,-1901 -461,-3057l-1773 -7441c-833,-2006 -3964,-54 -3964,447z"/>
  <path class="fil2" d="M480608 89521c513,246 1072,335 1843,335l2078 7973c221,882 1029,3248 847,3986 -265,1077 -1315,2601 -2087,3118 -914,-213 -1432,-792 -2345,-1005 -549,477 -1341,1516 -1341,2513 0,277 1197,670 1508,670 4002,0 5966,-5064 7371,-7874 957,-1915 4138,-8823 4188,-11056 -1640,-382 -1320,-395 -3016,0 0,2910 1561,1589 -1460,8591 -202,468 -363,849 -554,1288l-666 1345c0,-1911 -1510,-7678 -2079,-9982 -429,-1734 -1221,-1868 -3000,-1129 -718,298 -1218,406 -1287,1227z"/>
  <path class="fil2" d="M307060 89186l0 502c929,0 1114,152 1843,168l-2345 11727c2704,0 2374,521 2825,-2201 140,-849 606,-3636 860,-4165 911,0 606,-163 967,373 1009,1502 2140,6160 4561,6160 800,0 2513,-642 2513,-1340 0,-757 -1042,-502 -1843,-502 -537,-1016 -1177,-1802 -1728,-2796 -596,-1076 -1062,-2009 -1622,-3068 553,-370 1035,-793 1604,-1243 330,-261 421,-384 717,-623 1062,-857 3070,-2691 3374,-3997 -1299,-303 -1748,-483 -3103,-75 -712,215 -494,224 -439,906 167,2071 -702,2379 -2618,4065 -828,728 -1267,1135 -2216,1135l1173 -6031c-998,-529 -2329,-78 -3548,305 -516,162 -975,150 -975,700z"/>
  <path class="fil2" d="M271044 100578c-3966,0 -2584,-6401 -1868,-8402 1508,-4214 5553,-3632 5553,-310l0 1508c0,2612 -1367,7204 -3685,7204zm-5193 -4021c0,7543 9145,7051 11152,-741 2280,-8849 -5612,-9974 -9097,-5245 -689,935 -1007,1400 -1409,2612 -281,846 -646,2218 -646,3374z"/>
  <path class="fil2" d="M468715 88683c0,682 1325,1116 2010,1173 0,3031 -3281,9288 -3351,9549 -1654,-138 -2847,-2072 -2847,1005 0,2946 3437,1705 5506,-3372 557,-1364 2164,-5938 2200,-7517l3015 0c-155,1864 -2178,8990 -2178,11224 0,1766 4356,818 4356,-335 0,-768 -1188,-502 -2011,-502 173,-361 474,-2286 601,-2918 224,-1122 393,-1966 614,-3071 187,-938 418,-2089 614,-3072 108,-537 217,-1091 318,-1544 144,-645 389,-1122 -304,-1122l-8041 0c-386,0 -502,116 -502,502z"/>
  <path class="fil2" d="M225144 93709c96,-4308 5193,-5918 5193,-3015 0,429 -370,1104 -620,1390 -386,438 -604,579 -1159,851 -569,277 -812,355 -1521,490 -523,99 -1426,60 -1893,284zm-3016 3015c0,6678 6508,5976 8837,3306 34,-40 427,-595 430,-603 333,-878 -342,-841 -836,-495 -2971,2084 -5918,1536 -5918,-2878 0,-577 124,-648 168,-1172 9762,0 9405,-7036 4690,-7036 -1017,0 -2524,464 -3181,839 -2579,1475 -4190,4730 -4190,8039z"/>
  <path class="fil2" d="M293994 89521c0,797 362,1794 1172,2010 1169,-856 883,-2345 2848,-2345 2757,0 2848,2952 2848,4858l-5193 0c-56,666 -168,404 -168,838 0,631 111,316 168,1005 756,-63 1704,-246 2513,-335 804,-88 1757,-318 2512,-335 -345,1484 -654,2291 -1436,3421 -823,1189 -3263,2789 -4367,1545l-1400 -2118c-667,55 -877,375 -1181,829 -259,387 -537,983 -662,1516 1415,2113 9391,3092 11395,-4520 677,-2574 882,-5685 -1603,-7283 -2522,-1621 -7446,-210 -7446,914z"/>
  <path class="fil2" d="M352457 93709c114,-1365 1489,-4523 3686,-4523 2098,0 2106,2867 -353,3835 -411,161 -1059,370 -1555,455 -726,125 -1132,83 -1778,233zm1508 8209c2467,0 4173,-1236 5026,-2848l-539 -467c-1382,905 -1722,1472 -3649,1472 -2019,0 -2848,-2049 -2848,-3518 0,-710 167,-786 167,-1675 1566,0 3853,-418 5005,-858 3527,-1346 3443,-4427 1897,-5542 -2413,-1740 -7618,45 -9048,5258 -922,3363 -784,8178 3989,8178z"/>
  <path class="fil2" d="M321132 97227c0,1322 514,2625 1139,3383 1599,1939 5856,1939 8074,-1373l-344 -665c-1654,875 -1360,1503 -3844,1503 -3494,0 -2803,-7615 256,-9963 832,-639 975,-667 2089,-926l1974 1880c734,-507 2958,-3220 -1471,-3220 -3321,0 -6154,2629 -7185,5714 -331,990 -688,2389 -688,3667z"/>
  <path class="fil2" d="M453806 96724c0,2770 1000,5194 4188,5194 1951,0 3261,-707 4407,-1964 582,-639 542,-750 115,-1387 -1241,832 -1679,1508 -3517,1508 -4659,0 -2356,-10889 2177,-10889 148,0 1645,1598 2011,1843 508,-341 2783,-3183 -1508,-3183 -4452,0 -7873,4552 -7873,8878z"/>
  <path class="fil2" d="M182092 96724c0,2770 1000,5194 4188,5194 2435,0 4189,-1268 5025,-2848l-538 -467c-1207,791 -1637,1472 -3482,1472 -4658,0 -2356,-10889 2178,-10889 147,0 1644,1598 2010,1843 508,-341 2783,-3183 -1508,-3183 -1636,0 -3317,747 -4488,1710 -200,165 -378,291 -546,459 -1436,1445 -2839,4115 -2839,6709z"/>
  <path class="fil2" d="M281430 94882l7538 0c133,-571 320,-999 335,-1676l-7538 0c-114,489 -291,1144 -335,1676z"/>
 </g>
</svg>
