<?xml version="1.0" encoding="UTF-8"?>
<!DOCTYPE svg PUBLIC "-//W3C//DTD SVG 1.1//EN" "http://www.w3.org/Graphics/SVG/1.1/DTD/svg11.dtd">
<!-- Creator: CorelDRAW X8 -->
<svg xmlns="http://www.w3.org/2000/svg" xml:space="preserve" width="355px" height="512px" version="1.1" style="shape-rendering:geometricPrecision; text-rendering:geometricPrecision; image-rendering:optimizeQuality; fill-rule:evenodd; clip-rule:evenodd"
viewBox="0 0 45108 65077"
 xmlns:xlink="http://www.w3.org/1999/xlink">
 <defs>
  <style type="text/css">
   <![CDATA[
    .fil0 {fill:#7D7D7D}
   ]]>
  </style>
 </defs>
 <g id="Слой_x0020_1">
  <metadata id="CorelCorpID_0Corel-Layer"/>
  <path class="fil0" d="M23133 31013c-1878,0 -2960,-75 -4703,-889 -829,-387 -2013,-1239 -2675,-1901 -274,-274 -762,-836 -989,-1172 -4789,-7100 578,-15230 7731,-15230 9943,0 13497,13314 4364,18218 -774,416 -2596,974 -3728,974zm-2353 -31013l3497 0c3303,0 7653,1662 10244,3356 5887,3851 9347,9113 10423,16523 86,592 214,2706 144,3219 -130,941 -202,1922 -400,2906 -859,4269 -2914,8217 -5119,11913l-3953 6087c-2173,3246 -4756,6558 -6992,9913 -1282,1922 -2789,4214 -3715,6326 -1206,2750 -730,2923 -1068,4017 -148,476 -509,728 -913,817l-725 0c-301,-62 -568,-198 -724,-380 -573,-666 45,-1822 -1736,-5382 -1738,-3476 -4185,-6738 -6396,-9873 -561,-795 -1088,-1576 -1689,-2378l-2455 -3519c-4068,-5871 -9203,-13933 -9203,-21175 0,-5778 2407,-11628 6196,-15411 1958,-1954 3618,-3360 6175,-4629 1253,-621 2354,-1101 3814,-1525 1995,-579 3233,-758 4595,-805z"/>
 </g>
</svg>
