<?xml version="1.0" encoding="UTF-8"?>
<!DOCTYPE svg PUBLIC "-//W3C//DTD SVG 1.1//EN" "http://www.w3.org/Graphics/SVG/1.1/DTD/svg11.dtd">
<!-- Creator: CorelDRAW X8 -->
<svg xmlns="http://www.w3.org/2000/svg" xml:space="preserve" width="384px" height="418px" version="1.1" style="shape-rendering:geometricPrecision; text-rendering:geometricPrecision; image-rendering:optimizeQuality; fill-rule:evenodd; clip-rule:evenodd"
viewBox="0 0 109417 118955"
 xmlns:xlink="http://www.w3.org/1999/xlink">
 <defs>
  <style type="text/css">
   <![CDATA[
    .fil0 {fill:#7D7D7D}
   ]]>
  </style>
 </defs>
 <g id="Слой_x0020_1">
  <metadata id="CorelCorpID_0Corel-Layer"/>
  <g id="_526369726896">
   <path class="fil0" d="M0 27306c0,11357 1430,18334 4945,28660 2163,6354 6070,14362 9526,20094l7903 11748c4150,5471 7015,8290 11587,12905l13829 10664 6315 3652c7743,3784 16442,5333 24897,2386 2852,-994 4869,-2116 7179,-3643 8042,-5315 10609,-12364 3036,-19899 -4136,-4114 -14279,-13310 -19157,-13310 -3731,0 -7841,3426 -10328,5905l-3134 3702c-2250,2748 -3994,429 -6678,-1998 -659,-596 -570,-749 -1151,-1412 -1627,-1858 -3338,-3302 -4952,-5301 -3424,-4239 -5791,-7196 -8790,-11715 -1358,-2046 -2575,-4158 -3895,-6359 -2448,-4082 -9488,-18384 -9488,-21554 0,-1908 2884,-2601 4437,-3253 13671,-5743 14277,-6642 10943,-20101 -904,-3648 -3492,-12323 -5776,-15015 -6971,-8214 -18117,57 -23634,5542 -4219,4194 -7614,11969 -7614,18302z"/>
   <path class="fil0" d="M59807 7370c0,8825 10849,2500 25998,17007 605,579 667,723 1178,1385 1154,1493 1558,1530 3581,4393 1553,2196 2750,4311 3992,6830 3490,7073 4539,15278 3651,23594 -130,1218 -719,3485 -664,4538 332,6356 9534,7320 10850,522 3013,-15573 -727,-30500 -9809,-42934l-2675 -3306c-5576,-6027 -12973,-11771 -20971,-14628 -4022,-1437 -10573,-4401 -13757,-869 -698,774 -1374,2054 -1374,3468z"/>
   <path class="fil0" d="M54396 23319c0,9897 8704,2879 19435,15025 5202,5887 7525,13654 6727,21674 -117,1176 -530,2351 -530,3742 0,5503 8770,7364 10653,1255 2162,-7011 520,-16740 -1903,-22821 -3101,-7781 -8885,-14405 -16063,-18682 -3640,-2169 -12613,-6697 -16505,-3506 -693,568 -1814,2194 -1814,3313z"/>
   <path class="fil0" d="M48700 40976c0,5630 5151,4859 8549,7115 3032,2013 5203,4979 5519,9831 61,954 -2037,8849 4823,9425 7805,655 7648,-13117 2525,-21301 -3142,-5018 -10037,-10481 -16290,-10481 -2627,0 -5126,2664 -5126,5411z"/>
  </g>
 </g>
</svg>
