<svg xmlns="http://www.w3.org/2000/svg" viewBox="0 0 122.74 32.48"><defs><style>.cls-1{fill:#a7782c;}.cls-2{fill:none;stroke:#a7782c;stroke-miterlimit:10;}</style></defs><g id="Слой_2" data-name="Слой 2"><g id="Слой_1-2" data-name="Слой 1"><rect class="cls-1" width="2.95" height="32.48"/><rect class="cls-1" x="30.38" width="2.95" height="32.48"/><rect class="cls-1" x="6.14" width="2.95" height="32.48"/><polygon class="cls-1" points="21 11.81 21 0 18.05 0 18.05 11.81 15.48 11.81 15.48 0 12.53 0 12.53 14.76 12.53 14.76 15.48 14.76 18.05 14.76 21 14.76 21 14.76 21 11.81 21 11.81"/><polygon class="cls-1" points="21 20.66 21 32.48 18.05 32.48 18.05 20.66 15.48 20.66 15.48 32.48 12.53 32.48 12.53 17.71 12.53 17.71 15.48 17.71 18.05 17.71 21 17.71 21 17.71 21 20.66 21 20.66"/><rect class="cls-1" x="24.42" width="2.95" height="32.48"/><path class="cls-1" d="M39.19,15.17v-.83a5,5,0,0,0,1.46-.17.67.67,0,0,0,.23-.46A20.46,20.46,0,0,0,41,11V5.63a22.88,22.88,0,0,0-.1-3,.38.38,0,0,0-.17-.22,4.74,4.74,0,0,0-1.51-.21V1.42c1.3,0,2.34.06,3.11.06,1.21,0,2.31,0,3.32-.06v.82a6,6,0,0,0-1.43.18.37.37,0,0,0-.18.17,3.94,3.94,0,0,0-.14,1.14c0,.94,0,1.89,0,2.86V7.4c.68,0,1.76,0,3.23,0,1.31,0,2.28,0,2.9,0,0-2.12,0-3.53-.07-4.23a1.06,1.06,0,0,0-.21-.69,3.69,3.69,0,0,0-1.52-.24V1.42q2.45.06,3.3.06,1.48,0,3.12-.06v.82a5.38,5.38,0,0,0-1.46.19.35.35,0,0,0-.17.17,7.19,7.19,0,0,0-.13,1.6c-.05,1.42-.07,2.58-.07,3.46l.06,4.45a10.32,10.32,0,0,0,.09,1.73.52.52,0,0,0,.22.32,6.63,6.63,0,0,0,1.46.18v.83l-1.08,0c-.82,0-1.46,0-1.92,0-1,0-2.11,0-3.42.07v-.83a4,4,0,0,0,1.48-.21c.12-.1.19-.37.22-.8,0-.75.08-2.33.1-4.76H47.51c-1.4,0-2.63,0-3.69,0v.65c0,1.71,0,3,.07,3.85,0,.57.11.91.23,1a4.39,4.39,0,0,0,1.5.23v.83l-1.16,0c-.74,0-1.39,0-2,0Z"/><path class="cls-1" d="M56.58,15.17v-.53a5.14,5.14,0,0,0,1-.55,64.33,64.33,0,0,0,.2-6.43c0-2.23,0-3.71-.07-4.43a1.13,1.13,0,0,0-.2-.73A4,4,0,0,0,56,2.24V1.42c1.54.06,2.76.08,3.66.08l5.39-.08a14.39,14.39,0,0,1,1.54.07l.07.1a20.85,20.85,0,0,0-.32,2.87h-.77a8.46,8.46,0,0,0-.11-1.52c0-.07-.19-.13-.45-.19a12.52,12.52,0,0,0-2.49-.18c-.55,0-1.19,0-1.92.07-.08,2-.13,3.63-.15,4.82.7,0,1.36.07,2,.07a8,8,0,0,0,1.64-.09.41.41,0,0,0,.24-.28,10.9,10.9,0,0,0,.13-1.24h.85c0,1.11,0,1.83,0,2.17l0,2.21h-.85a5.82,5.82,0,0,0-.17-1.49A.37.37,0,0,0,64,8.64a13.49,13.49,0,0,0-2.2-.11,12.54,12.54,0,0,0-1.27.07c0,.35,0,.7,0,1.05,0,1.87,0,3.3.1,4.3l1.94,0a23.57,23.57,0,0,0,3-.18c.16-.6.32-1.29.47-2.05h.81a33.4,33.4,0,0,0-.26,3.35c-.6,0-1.17.07-1.72.07l-2.12,0L60,15.1C58.94,15.1,57.79,15.12,56.58,15.17Z"/><path class="cls-1" d="M68.17,15.17v-.83a5.38,5.38,0,0,0,1.4-.15.48.48,0,0,0,.2-.26,6.41,6.41,0,0,0,.14-1.65c0-1.57,0-2.76,0-3.55l0-4.15a7.87,7.87,0,0,0-.11-1.9.38.38,0,0,0-.18-.21,5.45,5.45,0,0,0-1.48-.23V1.42c1,0,1.77.05,2.27.05s1.16,0,1.85-.05c1.51,1.92,3.21,4,5.12,6.26,1.26,1.51,2.35,2.75,3.27,3.74V7.52c0-1.47,0-2.74-.05-3.81a3.53,3.53,0,0,0-.15-1.17.35.35,0,0,0-.22-.16,10.31,10.31,0,0,0-1.37-.14V1.42c.71,0,1.42.05,2.12.05,1,0,1.84,0,2.62-.05v.82a6.48,6.48,0,0,0-1.31.16.54.54,0,0,0-.21.13.55.55,0,0,0-.11.23,7.82,7.82,0,0,0-.08,1.51l0,3.92,0,4c0,1.06,0,2.12.07,3.17l-.13.14c-.8-.14-1.36-.24-1.68-.28q-2.52-2.79-6.09-7Q72.23,6,71.12,4.56V8.37c0,1,0,2.29,0,3.75A8.82,8.82,0,0,0,71.3,14a.35.35,0,0,0,.15.17,5.68,5.68,0,0,0,1.41.19v.83c-1-.05-1.81-.07-2.26-.07S69.41,15.12,68.17,15.17Z"/><path class="cls-1" d="M85.54,15.17v-.51a6.5,6.5,0,0,0,1-.6c.09-1.77.13-3.62.13-5.54,0-1.51,0-2.93,0-4.27A6.22,6.22,0,0,0,86.5,2.6a.34.34,0,0,0-.2-.19,9.73,9.73,0,0,0-1.42-.17V1.42c1.26,0,2.43.05,3.51.05s2,0,3-.05v.82a4.55,4.55,0,0,0-1.54.24.51.51,0,0,0-.19.35c0,.18-.06,1.24-.08,3.17l-.06,4.78c0,.89,0,1.93.07,3.1.85,0,1.49.07,1.9.07a14.26,14.26,0,0,0,3.1-.29c.17-.59.34-1.29.51-2.11h.86c-.15.95-.28,2.14-.39,3.55-.62,0-1.19.07-1.71.07l-3.55-.05-1.58,0C88,15.09,86.91,15.11,85.54,15.17Z"/><path class="cls-1" d="M97.82,15.17v-.53a5.14,5.14,0,0,0,1-.55A64.33,64.33,0,0,0,99,7.66C99,5.43,99,4,98.9,3.23a1.13,1.13,0,0,0-.2-.73,3.94,3.94,0,0,0-1.45-.26V1.42c1.54.06,2.75.08,3.65.08l5.39-.08a14.39,14.39,0,0,1,1.54.07l.07.1a19.59,19.59,0,0,0-.31,2.87h-.78a8.46,8.46,0,0,0-.11-1.52c0-.07-.19-.13-.45-.19a12.52,12.52,0,0,0-2.49-.18c-.55,0-1.19,0-1.92.07-.08,2-.13,3.63-.15,4.82.7,0,1.36.07,2,.07a8,8,0,0,0,1.63-.09.41.41,0,0,0,.24-.28,8.8,8.8,0,0,0,.13-1.24h.85c0,1.11,0,1.83,0,2.17l0,2.21h-.85a5.82,5.82,0,0,0-.17-1.49.37.37,0,0,0-.27-.17,13.49,13.49,0,0,0-2.2-.11,12.54,12.54,0,0,0-1.27.07c0,.35,0,.7,0,1.05,0,1.87,0,3.3.1,4.3l2,0a23.52,23.52,0,0,0,3-.18c.16-.6.32-1.29.47-2.05h.81a33.4,33.4,0,0,0-.26,3.35c-.59,0-1.17.07-1.71.07l-2.13,0-2.73,0C100.18,15.1,99,15.12,97.82,15.17Z"/><path class="cls-1" d="M109,15.17v-.83a3.4,3.4,0,0,0,1.08-.17,6.21,6.21,0,0,0,.92-1.05l3.31-4.4c-1-1.81-1.86-3.2-2.47-4.17a7,7,0,0,0-1.39-1.75,1.08,1.08,0,0,0-.6-.17,3.9,3.9,0,0,0-.64.07l-.09-.8,3.67-.74a4.75,4.75,0,0,1,1,.91,24.12,24.12,0,0,1,1.37,2.34l1,1.91,2.39-3.48c.41-.6.72-1.07.92-1.42a9,9,0,0,0,1,.06c.37,0,.81,0,1.31-.06v.8a2.93,2.93,0,0,0-1,.18,4.2,4.2,0,0,0-.94,1l-3.05,4,.65,1.18q1.69,3,2.37,4.11a10.32,10.32,0,0,0,1.07,1.51,2.19,2.19,0,0,0,.92.15v.83c-.75-.05-1.46-.07-2.13-.07s-1.19,0-1.76.07c-.25-.41-.6-1-1-1.8L115,9.8,113,12.56q-.35.53-1.62,2.61c-.51-.05-.89-.07-1.14-.07S109.61,15.12,109,15.17Z"/><path class="cls-1" d="M41.69,23.85H39.34v-.61h5.41v.61H42.4v6.08h-.71Z"/><path class="cls-1" d="M52,29.32v.61H47.29V23.24h4.59v.61H48v2.38h3.46v.6H48v2.49Z"/><path class="cls-1" d="M56.17,29.55a3.19,3.19,0,0,1-1.25-1.22,3.61,3.61,0,0,1,0-3.49,3.15,3.15,0,0,1,1.26-1.22,3.58,3.58,0,0,1,1.8-.44,3.68,3.68,0,0,1,1.38.25,2.93,2.93,0,0,1,1.07.72L60,24.6a2.68,2.68,0,0,0-2-.79,3,3,0,0,0-1.45.36,2.78,2.78,0,0,0,0,4.83,3,3,0,0,0,1.45.36,2.66,2.66,0,0,0,2-.8l.45.45a3.13,3.13,0,0,1-1.08.73,3.92,3.92,0,0,1-3.18-.19Z"/><path class="cls-1" d="M68.94,23.24v6.69h-.69V26.84h-4.2v3.09h-.7V23.24h.7v3h4.2v-3Z"/><path class="cls-1" d="M78.13,23.24v6.69h-.58L73.24,24.5v5.43h-.71V23.24h.59l4.31,5.43V23.24Z"/><path class="cls-1" d="M82.84,29.55a3.29,3.29,0,0,1-1.26-1.22,3.61,3.61,0,0,1,0-3.49,3.29,3.29,0,0,1,1.26-1.22,3.76,3.76,0,0,1,1.81-.44,3.57,3.57,0,0,1,1.79.44,3.28,3.28,0,0,1,1.26,1.22,3.54,3.54,0,0,1,0,3.49,3.28,3.28,0,0,1-1.26,1.22,3.57,3.57,0,0,1-1.79.44A3.76,3.76,0,0,1,82.84,29.55ZM86.08,29a2.6,2.6,0,0,0,1-1,3,3,0,0,0,0-2.85,2.6,2.6,0,0,0-1-1,2.84,2.84,0,0,0-1.43-.36,2.9,2.9,0,0,0-1.44.36,2.69,2.69,0,0,0-1,1,2.93,2.93,0,0,0,0,2.85,2.69,2.69,0,0,0,1,1,2.9,2.9,0,0,0,1.44.36A2.84,2.84,0,0,0,86.08,29Z"/><path class="cls-1" d="M91.15,23.24h.71v6.08h3.75v.61H91.15Z"/><path class="cls-1" d="M99.19,29.55a3.38,3.38,0,0,1-1.27-1.22,3.61,3.61,0,0,1,0-3.49,3.38,3.38,0,0,1,1.27-1.22,3.75,3.75,0,0,1,1.8-.44,3.61,3.61,0,0,1,1.8.44A3.19,3.19,0,0,1,104,24.84a3.54,3.54,0,0,1,0,3.49,3.19,3.19,0,0,1-1.25,1.22A3.61,3.61,0,0,1,101,30,3.75,3.75,0,0,1,99.19,29.55Zm3.24-.55a2.64,2.64,0,0,0,1-1,2.93,2.93,0,0,0,0-2.85,2.64,2.64,0,0,0-1-1,3.06,3.06,0,0,0-2.88,0,2.6,2.6,0,0,0-1,1,2.93,2.93,0,0,0,0,2.85,2.6,2.6,0,0,0,1,1,3.06,3.06,0,0,0,2.88,0Z"/><path class="cls-1" d="M112.22,26.58h.68v2.56a3.56,3.56,0,0,1-1.11.63,4.07,4.07,0,0,1-1.35.22,3.62,3.62,0,0,1-1.81-.44,3.15,3.15,0,0,1-1.26-1.22,3.54,3.54,0,0,1,0-3.49,3.15,3.15,0,0,1,1.26-1.22,3.63,3.63,0,0,1,1.82-.44,3.92,3.92,0,0,1,1.4.24,2.81,2.81,0,0,1,1.08.72l-.44.45a2.75,2.75,0,0,0-2-.78,3,3,0,0,0-1.47.36,2.65,2.65,0,0,0-1,1,2.77,2.77,0,0,0-.38,1.42A2.72,2.72,0,0,0,108,28a2.8,2.8,0,0,0,1,1,3,3,0,0,0,1.47.36,2.9,2.9,0,0,0,1.75-.52Z"/><path class="cls-1" d="M118.6,27.62v2.31h-.7V27.62l-2.68-4.38H116L118.27,27l2.3-3.76h.71Z"/><line class="cls-2" x1="38.58" y1="18.26" x2="122.74" y2="18.26"/></g></g></svg>