<svg xmlns="http://www.w3.org/2000/svg" xmlns:xlink="http://www.w3.org/1999/xlink" viewBox="0 0 750 500"><defs><style>.cls-1,.cls-2,.cls-4,.cls-5{fill:none;}.cls-2{opacity:0;}.cls-3{clip-path:url(#clip-path);}.cls-4,.cls-5{stroke:#665a3e;stroke-miterlimit:10;}.cls-4{stroke-width:2px;}</style><clipPath id="clip-path"><rect class="cls-1" width="750" height="500"/></clipPath></defs><g id="Слой_2" data-name="Слой 2"><g id="BACKGROUND"><rect class="cls-2" width="750" height="500"/></g><g id="OBJECTS"><g class="cls-3"><path class="cls-4" d="M76-25.33c-.67,12-1,41-21,62s-14,62,14,63,43,9,56,27,54,58,71,42,54-36,61-62,40-57,66-58,40,6,47,22,50,13,49,41-31,84-23,109,46,12,46-4-3-20,1-34,20-43,33-38,38,2,48-6,38-55,56-47,62,40,47,77-37,77-40,90,8,11,7,36-7,47,4,55,41,10,47-3,21-41,35-39,40-8,38-24,2-40,9-50,44-41,44-41v-229s-295.37,7.92-501,11c-45.27.68-80.2-18.12-112.67-18.67C111.29-44.77,76.67-37.33,76-25.33Z"/><path class="cls-4" d="M-18.67,90C-6,82.67,32,135.67,22,147.67s-5,32-9,39-4,17,0,30,33,7,39-3,20-25,28-26,34,12,34,23,6,39-2,48-10,55-28,62-22,25-20,41,41,27,55,19,47-47,38-55-4-36,5-47,27-17,30-9,20-5,21,9-4,45,2,59,40,7,49-4,42-16,55-11,19,53,33,56,30-9,40-19,40-33,58-32,39-7,58,6,43,42,47,59,14,54,20,65,37,28,52,18,34-22,48-24,24,3,27,11-8,12,0,20,30,9,32-1,4-16,7-33,30-5,30-5v103H-30S-31.33,97.34-18.67,90Z"/><path class="cls-5" d="M352.66,470.28c.87-4.52,2.43-15.45,7-23.28,5.19-8.9,13.37-14.73,12.66-19.33-1.33-8.67-14.8-7.35-18-17.34S349.81,393.28,343,385s-13.7-47-24.67-52-34-.67-42,3.33S255.67,349,233,351c-16.28,1.44-25-4.21-27.19-9.39-4.9-11.43,6-58.95,1.19-61.94s-8,3.33-16,2S173.83,280,169.74,285c-3.05,3.73-6.07,10.67-7.4,15.33s-1.39,14.39,1.3,17.86,5.55,6.15,4.78,13.56c-1.88,18-31.34,50.1-44.46,57.6C119.33,392,103,399,90.34,399s-38.22-7.74-40.67-27.33C46.59,347,60.82,319,80.38,311.35c6.48-2.53,11.6-22.74,14.35-33.6,2.9-11.48,8.76-28.22,7.61-45.42s-12.47-30.71-19.34-28S66.48,209,60.58,218.81s-18.47,26.86-30.24,26.86c-12,0-17.34-4-22.67-22.67S9,185.1,9,174.33a340.69,340.69,0,0,1,2-36.66c.94-8.76-9.95-24.92-14-21.13S-19.6,536.67-19.6,536.67s254.47-5.89,348.6-28.34C351.19,503,351.89,474.27,352.66,470.28Z"/><path class="cls-4" d="M104,13.67c-1,11-10,23-20,28s-15,17-12,29,27-1,39-2,25,19,29,29c0,0,2,16,12,24s27,8,32,0,21-20,24-30,10-20,5-26-16-18-18-22,3-15,11-17,13,14,21,10,23-13,25-21,4-19-4-28-123.33-7.67-130-4S105,2.67,104,13.67Z"/><path class="cls-4" d="M176,336.33s3-8-3-17-4-16,1-22,20-11,23-2-2,29-1,35,1,24,11,28,20,2,27,0,18-2,20,3,1,13-2,20-19,6-22,15-14,16-26,13-14-19-26-23-16-13-13-20S176,336.33,176,336.33Z"/><path class="cls-5" d="M211.67,400a14.87,14.87,0,0,1-3.42-.41c-2.57-.61-4.68-3.26-7.92-7.53-4.14-5.46-18.66-16.43-22.66-22.43s1.14-28.76,8.42-30.05,4.1,22.42,18.84,28a48,48,0,0,0,17.08,3c7.45,0,19.66-9.64,25-5s-.84,10.62-4.75,12.64-15.81,5.45-19.12,14.86C222,396.5,217.54,400,211.67,400Zm-34-90.37S181,299,187,298.33s6.67,3.34,4,9.34,0,14-4.66,13.33S175.67,313.67,177.67,309.67Z"/><path class="cls-4" d="M428-9.33s20,28,20,43,9,28,7,38-4,24,3,27,19-1,24-7,13-23,18-23,15-3,16,2,4,16-3,22-15,18-16,26-1,15,3,18,19-5,25-12,16-24,24-30,26-22,37-18,29-1,37-12,13-34,22-46,20-26,6-32S427-10.33,428-9.33Z"/><path class="cls-5" d="M507.41,119c-1.93-2.31,6.1-14.24,11.86-19.41,10.35-9.29,7.41-23.85,6.16-30.06-.08-.4-.15-.78-.22-1.12-.48-2.53-3-10.8-14.55-10.8a51.62,51.62,0,0,0-6.58.55c-1.2.16-2.56.33-3.2.33-8.38,0-17.12,22.37-24.21,26.28s-10.8-1.88-9-11.5c1.44-7.53-.8-15-3-22.23-1.7-5.66-3.45-11.52-3.45-17.25,0-10.19-6.08-23.54-11.73-33.75,32.06-1.7,107.69-4.83,156-4.83,26.67,0,33,1,34.28,1.35l.21.11c-.79,3.57-6.26,11.2-9.31,15.45L630,13c-5.18,7.23-8.81,17-12.33,26.4-2.74,7.36-5.58,15-8.5,19.17-3.61,5.21-11.87,9.14-19.2,9.14h0a13.75,13.75,0,0,1-4.83-.76,19.09,19.09,0,0,0-6.82-1.22c-12.11,0-25.13,10.71-33.74,17.79-1.2,1-2.27,1.87-3.2,2.6-6.12,4.8-12.25,13.92-17.67,22-2.46,3.65-4.79,7.11-6.46,9.15C515,120.09,509.34,121.29,507.41,119Z"/><path class="cls-5" d="M470,8.67s7,21,8,31,11,8,17,5,30-8,34-2,6,18,10,21,8,2,13-2,18-16,25-14,19,0,24-6S617,6.33,615,0,484.5-8.33,478.5-5.83,468,1.67,470,8.67Z"/><path class="cls-5" d="M488.9,7.36c-1,7.81.51,22.87,5.1,26.77s30.13-7.81,35.24-1.67S540,49.75,545.58,48.08,559.36,36.92,566,36.36s15.83-6.13,18.38-14.5-9.7-16.18-17.87-15.62-41.36-1.11-48-4.46S489.92-.45,488.9,7.36Z"/><path class="cls-5" d="M526,14.17c-1,3-2.5,8,3.5,11s10.5,10.5,15,12,8.5-1.5,14-5.5,4-12,0-14.5S527,11.17,526,14.17Z"/><path class="cls-4" d="M653,191.67c-6,10-25,23-35,36s-19,23-16,31,9,22,5,30-6,35-6,42,3,7,9,10,18,1,22-7,12-21,17-32,10-18,18-21,19-13,21-21,4-26,12-38,18-31,13-40-13-16-21-13S659,181.67,653,191.67Z"/><path class="cls-5" d="M611.81,323.7c-3.71-4.54,2.4-26.37,4.86-31.28,5.53-11.05-7.07-26-6.17-33.51s8.27-14.9,12.62-20.46c1.09-1.4,2.21-2.83,3.34-4.31,4.2-5.45,10.57-11.23,16.73-16.81,7.44-6.75,14.34-14.22,21.63-20.58s26.1-20.1,32.06-9.82,2.63,11.44-8.5,28.14c-7.25,10.87-11.78,21.59-13.09,31.41s-6,22.3-11.95,24.51c-12.14,4.55-16.57,10-21.42,20.64-2.83,6.21-12.44,25.52-16.36,28.14S615.52,328.24,611.81,323.7Z"/><path class="cls-5" d="M627,247.67s-10,8.66-7.33,16,5.33,16.66,2.66,24.66-5.33,13.34-.66,15.34,11.33-17.34,14.66-23.34S645.67,267,655.67,259s13.33-20,12-30.67-7.33-14.66-12-9.33S627,247.67,627,247.67Z"/><path class="cls-5" d="M633.67,251.67s15.33-19.34,18-14.67S647,254.33,643,258.33s-6.67,13.34-10,13.34S629.67,255.67,633.67,251.67Z"/><path class="cls-5" d="M681.67,299.67s18,0,24.66-6.67,3.34-10.67,2.67-20-1.33-15.33-7.33-8.67-10.67,18-15.34,21.34S677,297.67,681.67,299.67Z"/><path class="cls-5" d="M706.33,241s2.67-10,4-14.67,10-6.66,8,0-.66,14.67-4.66,20S705,245,706.33,241Z"/><path class="cls-5" d="M640.33,149c-1.33,5.33-2.66,15.33-10,26.67s-4.66,18-5.33,22.66,6,4,10,0,12.67-16.66,22-23.33,35.33-23.33,50-18,20.67,21.33,16.67,30.67-7.34,21.33-4,24.66S724.33,223,729,219s17.33-16.67,26.67-25.33,6.66-25.34,6.66-40.67V-22.33h-92S671.67,16.33,667,27s-8,24-16,28.67S635.67,78.33,630.33,85s1.34,14,6.67,24S641.67,143.67,640.33,149Z"/><path class="cls-5" d="M683-10.33c-.67,8,1.33,38-4.67,52s-14.66,32.66-22,38S639,97,645,107.67s8.67,30,6.67,38.66-.67,16.67,8,15.34S689,149,700.33,149s26,9.33,28,16,.67,18.67.67,26.67,4.67,10,10,6.66,15.33-12.66,17.33-24.66,0-181.34,0-181.34S683.67-18.33,683-10.33Z"/><path class="cls-5" d="M695,8.33s-1.33,44-5.33,56-17.34,25.34-26.67,30-8,18.67-5.33,25.34,6.66,20,5.33,26,3.33,10,12,6,22.67-10.67,34-8,26.67,14,26,25.33,3.67,12,9.33,7.33S750,138.33,750,125s5.67-108.33,0-116.67S695.67-9.67,695,8.33Z"/><path class="cls-5" d="M703,29.67S706.33,65,704.33,75s-14.66,17.33-22,20-16.66,5.33-14.66,10S671,115.67,675,116.33s12.67-2,12,4-8,14.67-7.33,19.34,14-4,22.66-3.34S725,141,731,148.33s6,20,9.33,20,4-18.66,2.67-31.33-10.67-24-16-33.33,2-22,5.33-30.67,13.34-26.67,10-42.67S736.33,7,725.67,5c-5.92-1.11-15.33-2.6-20,2C701.91,10.7,702.11,19,703,29.67Z"/><path class="cls-5" d="M711.67,18.33s-1.34,6,.66,20.67-.66,29.33,4,33.33S729.67,68.33,733,57s5.33-24.67,3.33-31.33S713,9,711.67,18.33Z"/><path class="cls-5" d="M719.67,32.33s1.33,29.34,6,26.67,7.33-13.33,6.66-20.67S719,22.33,719.67,32.33Z"/><path class="cls-5" d="M704.33,97.67c-3.33.66-10,3.33-7.33,14s-.67,18.66,6.67,18,20,1.33,24,6,9.33-.67,6-10.67S725,111.67,721,106.33,707.67,97,704.33,97.67Z"/><path class="cls-4" d="M750,254.33s-19.67,8.67-19,28-2,40-14.67,42.67-36,6-44.66,18S645,387,630.33,385s-35.33,1.33-38,16.67S601,451,617,456.33s40-18,54-20.66,35.33,1.33,39.33,10.66,13.34,12,18.67,3.34,7.33-26,18-34.67a135.78,135.78,0,0,0,19.33-20S755.67,256.33,750,254.33Z"/><path class="cls-5" d="M735.67,301s2.66,26-10,30.67-28,12.66-35.34,14.66S673,359,668.33,369s-16,24-26.66,25.33S610.33,397,612.33,411s22,22.67,34,16,40.67-12,52-8,20-.67,28-10,25.34-25.33,26-42.67,3.67-48.66.67-60.66S737,285,735.67,301Z"/><path class="cls-5" d="M737.67,331.67c-4,5.33-14,8.66-22.67,12S687.67,351,681.67,363,665,390.33,671,397s15.33,4,26.67,7.33,24.66,2,34.66-12,15.34-32,14-42.66S741.67,326.33,737.67,331.67Z"/><path class="cls-5" d="M641.67,403.67c-4.67.66-18.67,2-16.67,8.66s12,11.34,18.67,8,11.33-6.66,10.66-12.66S646.33,403,641.67,403.67Z"/><path class="cls-5" d="M694.53,360.68c-3.6,4.31-7.94,6.46-10.82,18.67s6.49,10.77,13.71,12.93,13,0,18.77-6.47,13.71-15.08,9.38-24.41S698.14,356.37,694.53,360.68Z"/><path class="cls-5" d="M757.67,449c-8.67-6.66-11.48,21.37-15.34,32s-7.35,14-20,14c-7.8,0-20.63,1.51-27.4-5.26-9.58-9.58-.59-17.63-7.26-24.07S646.23,476.18,637,482.33c-4.69,3.13-14,9.34-26,12s-37.52-10.78-44-22.66c-7.41-13.58-19.19-65.91-21.73-76.71-2.77-11.75-14.94-32-21.6-38S506.33,342.33,501,346.33,505,367,512.33,371c3.65,2,18,18,16,44-.87,11.36-4.91,25.43-9.4,38.21-5.79,16.48-8.23,56.79,4.74,67.12S761,536.67,761,536.67,766.33,455.67,757.67,449Z"/><path class="cls-5" d="M536.33,415s2.67,16.67-2.66,27.33-10.67,27.34-3.34,35.34,27.34,2,26-14-12-43.34-13.33-51.34S535.67,407,536.33,415Z"/><path class="cls-5" d="M540.33,447.67C537.67,449,531,465,539,469s13.33.67,12.67-8.67S543,446.33,540.33,447.67Z"/><path class="cls-4" d="M377,383.67c6-7,24-15,30-17s30-28,43-29,30,3,36,12,11,25,19,31,13,22,10,34-11,30-9,41-7,29-16,31-32-10-41-6-48-6-59-3-14-6-19-10,4-22,11-25,36,0,42-7,3-21-7-27-22,8-29,9-13.13-3.33-17.07-12.67S373.42,387.84,377,383.67Z"/><path class="cls-5" d="M400.1,395.63c2.93-.93,2.52-9.57-1.6-10.8s-10.94,2-13.16,4.11-3.82,7.89-1.65,12.34S397.18,396.57,400.1,395.63Z"/><path class="cls-5" d="M485.06,471c7.94-2.71,11.75-9.55,13.46-16.07,2.45-9.42,7.08-31,7.42-32,1.31-3.93,2.55-7.64,3.34-10.72,2.17-8.4-1.83-20.18-6.51-23.57-7.28-5.29-11.83-14.28-16.23-23a98.88,98.88,0,0,0-5.79-10.48c-2.55-3.7-12.62-7.69-24.45-7.69-1.15,0-2.27,0-3.35.12-5.28.39-19.89,12.42-26.12,17.55-7.29,6-7.7,18.79-5.61,23.19,1.35,2.85,15.69,24.41,17.2,33.41,1.29,7.71-.63,15.14-5.27,20.38-2.93,3.31-10.94,14.83-18.52,12.16S394,447,387.78,451.67c-8.08,6.08-.43,14.86,8.39,15.43s18-4,27.41-2.77c8.34,1.08,14.73,7.3,20.36,7.3,2,0,8.7-1.79,12-1.79C462.58,469.84,477.11,473.75,485.06,471Z"/><path class="cls-5" d="M396.33,421.91s7.34-8.33,14-7.57,16,12.12,7.34,17.42-16,6.06-20.67,3S392.33,426.46,396.33,421.91Z"/><path class="cls-5" d="M447.67,367.67c-8,4.66-20,12.66-10,24s16,26.66,14.66,35.33S443,451.67,451,455s27.33,7.33,34.67,0,10-24,15.33-34.67,2-19.33-3.33-26S483,377,479.67,367.67,455.67,363,447.67,367.67Z"/><path class="cls-5" d="M465.67,376.33c-4.67,1.34-14.67,6.67-8,17.34s13.33,30,12.66,37.33S477,443,483,437s12.67-16.67,10-28.67-9.33-18-12-24.66S470.33,375,465.67,376.33Z"/><path class="cls-4" d="M20,259.67c2,4,5,4,13,2s18-3,20-10,9-21,15-25,20-10,20,0-4,30-9,38-16,33-22,42-15,23-17,34-3,31-8,33-13-3-19-9-17-18-18-27-1-90-1-90,11-4,17,0S18,255.67,20,259.67Z"/><path class="cls-5" d="M61.84,252s5.66-18.1,12.7-20.56,8.51,1.75,4.52,12-10.72,26.2-15,23S58.27,258.9,61.84,252Z"/><path class="cls-5" d="M0,261c5-4.67,12.34-4.67,17,4.67S31.67,277,40.34,272.33s16-.66,17.33,5.34-4.67,18-13.33,24S29,322.33,27.67,334.33s2.67,26.67-6,21.34S4.67,349,2.34,333-5,265.67,0,261Z"/><path class="cls-5" d="M6.34,267s8,2,12,11.33,11.33,7.34,15.33,3.34,18-8,15.33-.67-9.33,15.33-16.66,22-8,11.33-10,22.67S20.34,347,13,337a44.77,44.77,0,0,1-8.66-29.33C5,299.67-.33,267,6.34,267Z"/><path class="cls-5" d="M10.34,299s-2,12,1.33,18,6-.67,8-7.33a20.79,20.79,0,0,0-2.67-18C13.67,287,9.67,295,10.34,299Z"/><path class="cls-4" d="M-4,393.67s26-2,33,5,8,16,12,26,17,14,20,8,18-14,28-11,18,30,17,43,2,31,5,44H-8Z"/><path class="cls-5" d="M0,411c4.67-4.67,25-8,28.34,6S39,453.67,55.67,455.67,81,431,88.34,437.67s4,20,4.66,36,12,29.33,4.67,30.66S0,500,0,500-4.67,415.67,0,411Z"/><path class="cls-5" d="M9,427s18,13.33,22,30,10.67,30,25.34,30,15.33-23.33,23.33-26.67,6,19.34,7.33,28-8.66,13.34-18,14-69.33,0-69.33,0S-6.33,418.33,9,427Z"/><path class="cls-5" d="M9,449.67c5.34-2,10,5.33,14,18.66s8.67,20-2.66,22S9.67,489,7.67,477.67,3.67,451.67,9,449.67Z"/><path class="cls-5" d="M48.34,403.67s2,16,8,14.66,9.33-6.66,6-12.66S45,395.67,48.34,403.67Z"/><path class="cls-4" d="M118.34,423c0,6,2,16,8,29.33s2.66,25.34,3.33,33.34S143,513,158.34,513s116-7.33,132-7.33S331,480.33,335.67,457s14.67-16.67,15.33-26-2-16.67-8-28.67-10-18-12.66-28.66S319,347,305.67,345s-36,4-36,21.33-6,42-16,43.34-16,12-34.67,12.66S189.67,405,181.67,397s-13.33-8-22-6.67-23.33,12-31.33,15.34S118.34,417,118.34,423Z"/><path class="cls-5" d="M175,404.33s13.34,9.34,20.67,20S217.67,443,235,433s23.34-12.67,30.67-13.33,15.33-16.67,14-32-4-27.34,4.67-32.67,19.33-6.67,26,2.67,7.33,26,12,40S335.67,420.33,327,435s0,30.67-12,45.33S271,500,241,500s-79.33,5-89.33-5.67-3.33-22-12.67-39.33-20-35.33-8.66-44,18.66-.67,26.66-4.67S169,398.33,175,404.33Z"/><path class="cls-5" d="M299,379c10-1.9,22,30.67,20,46s-5.33,32-7.33,47.33-45.33,24-63.33,20.67-68.67,7-82.67,3.33S153,484.33,152.34,469s-1.34-15.33-12.67-30-4-19.33-4-19.33,5-5,18.33-.34S171.33,412,180,424s12.67,35.33,48,26.67,46-8.67,57.33-21.34S286.67,381.33,299,379Z"/><path class="cls-4" d="M160,435.33c-3,3.44,1.33,16.67,2.67,25.34s-4.67,20.66,2.66,26.66,23.34-4.66,34-6,48.67-4.66,64.67,0,38.67-5.33,40-18.66-4.81-22.66-20-19.34c-21.33,4.67-44,22-58.67,23.34s-31.33-4-38.66-14.67S164.67,430,160,435.33Z"/><path class="cls-5" d="M258,465.33c1.33,8.67,13.34,8.67,24,6s10-11.33,5.33-16S256.67,456.67,258,465.33Z"/><path class="cls-5" d="M181.33,468c-4.38-2.55-10.18-4.6-12.64,4.5s2.27,14.38,6.73,10.9S185.72,470.55,181.33,468Z"/><path class="cls-5" d="M298,394a70.22,70.22,0,0,1,.67,16c-.67,8.67-2.67,12.67,4.66,14.67s12-7.34,8.67-16.67-5.33-16-8-20S296.67,388,298,394Z"/><path class="cls-5" d="M411.33,177.34c-4,13.33-15.33,33.33-6,44S436,226,436,215.34s-4-26,1.33-40,20.67-34.67,16-40.67S430,126,424,140.67A344.4,344.4,0,0,0,411.33,177.34Z"/><path class="cls-5" d="M415.33,187.34c-2.66,6-12,21.33-4.66,26.66s16.66,6.67,17.33-2.66,2.67-15.34-.67-21.34S418,181.34,415.33,187.34Z"/><path class="cls-5" d="M428.18,146.48s7.38-15.5,15.59-11.07,4.92,6.64-2.46,15.5S424.08,153.86,428.18,146.48Z"/><path class="cls-5" d="M477.69,105.66c5-4.09,14.36-12.83,16.57-20.42s11.05-10.49,13.26-5.83,1.65,11.08-4.43,15.17-16.66,15.56-15.46,24-1.8,18-12,13.82C468.88,129.61,472.72,109.74,477.69,105.66Z"/><path class="cls-5" d="M426,7.34S440,22,439.33,34.67,440.67,59.34,444,66s-.67,22,2,30-9.33,16-14.67,15.34-2.66-18.67-16.66-30S390,74,382,64s-37.33-52.67-65.33-39.33-54.67,26.67-62,46.67-10,44.66-31.34,59.33-34,30-43.33,27.33-26-12.66-16.67-16,18.67-5.33,24-13.33,10.67-13.33,19.34-18,18.66-20,18.66-30S221.33,54,228.67,50s32-16.66,36-31.33,14-31.33,32-32.67,58.66-2.66,78-3.33S414.67-12.66,426,7.34Z"/><path class="cls-5" d="M202.64,37.73s5.1-6.13,8.93-1.23,7.65,9.19,3.19,12.25S199.45,47.53,202.64,37.73Z"/><path class="cls-5" d="M355.33,18.67s16,12.67,22,24,9.34,22.67,20,24.67,20,4,25.34,14.66S426,103.34,434,99.34s4-14,3.33-23.34-6.66-16-4.66-30-4-29.33-14-40S381.33-10.66,368-9.33,338,4,355.33,18.67Z"/><path class="cls-4" d="M361.33,9.34S374,20,380.67,34s9.33,29.34,22,27.34,14.66,4.66,20,9.33,8.66-1.33,5.33-15.33-.67-14-3.33-27.34S400-3.33,387.33-3.33,356-1.33,361.33,9.34Z"/><path class="cls-5" d="M380.67,16s6.66,3.34,8.66,16,4,25.34,13.34,21.34S418,56.67,420,52.67s1.33-17.33-4-27.33-16.67-20.67-24-20S374.67,6.67,380.67,16Z"/><path class="cls-5" d="M394,20.67c-1.33,4,0,21.33,7.33,24s10.67-3.33,8-11.33S395.33,16.67,394,20.67Z"/><path class="cls-5" d="M213.11,115.53c-5.14,3.56-10.88,6.48-19.32,14.3s-8.62,12.83-14.27,13.25-7.74,6-.28,7.5,13.9-3.24,21.68-10.46,23.05-13.54,24.65-22.88S218.26,112,213.11,115.53Z"/><path class="cls-5" d="M232.65,57.47c-2,6.41.67,14.74-1.32,21.79s0,16.66,6,14.09,9.93-20.5,16.55-30.11,15.89-21.15,31.78-28.84S324,17.74,326.67,11.34s-9.93-14.74-21.18-16S281.65-6,278.34,7.49,269.73,29.92,261.79,37,234.64,51.06,232.65,57.47Z"/><path class="cls-5" d="M289.47,0c-4.14,3.34-2,8-5.45,16s3.41,10.67,14.31,5.34S316.73,12,312.64,6,293.61-3.33,289.47,0Z"/><path class="cls-5" d="M238.67,58.67s-1.34,2.67-2,11.33.66,14,3.33,8.67,7.33-12.67,7.33-19.33S240,54.67,238.67,58.67Z"/><path class="cls-5" d="M85.33,82a38,38,0,0,0,17.34-2c9.33-3.33,15.33-4,20,3.34s8,24,15.33,33.33,15.33,20,9.33,20.67S126.67,120,120.67,112s-18-14.66-28-15.33-28-6-26-12S76,80,85.33,82Z"/><path class="cls-5" d="M90,48c-4.67,3.34-12,13.34-2,14s27.33-6,37.33,4.67,19.34,20,22.67,32,6.67,18,15.33,18.67,27.34-12,28.67-30.67S190.67,62,184,54s0-16.66,3.33-24.66,5.34-13.34,12-14S214,14,218.67,22s8.66,9.34,15.33,0,5.33-24.66-2-28.66-42.67-2-53.33-3.34-48.67-3.33-54,0S117.33.67,114,12.67,106.67,36,101.33,39.34,94.67,44.67,90,48Z"/><path class="cls-4" d="M125.33,22s0,10.67-5.33,18.67,1.33,7.33,14.67,16S152,75.34,157.33,85.34,176,94.67,176,80s-8.67-28-4.67-41.33S186,6,196,5.34s6-7.34-.67-10S154-2,144.67-3.33,124,7.34,125.33,22Z"/><path class="cls-5" d="M34.67,116s10.66,20,2.66,30-13.33,18-12,28-8.66,24.67,2,29.34,18-18,32.67-24.67,20-9.33,33.33-2,20,19.33,28,8.67S124.67,146.67,118,134s-26-22.66-36-22.66-22,6-28.67-.67S30,104.67,34.67,116Z"/><path class="cls-5" d="M50,124c-1.33,5.34,10,15.34,2,23.34s-16.67,19.33-13.33,27.33,12-6,22.66-8.67,20.67-6.66,29.34,0,14,18,19.33,10.67,4.67-24-4-36-20.67-20-29.33-19.33S51.33,118.67,50,124Z"/><path class="cls-5" d="M63.33,136.67s0,10.67-3.33,15.33.67,9.34,10.67,5.34,18.66-2.67,23.33,4,10.67,2.66,9.33-6S96,138.67,90,133.34,62,132,63.33,136.67Z"/><path class="cls-5" d="M72.67,139.34C67.33,142,68,150.67,76,150s17.33,2,14.67-4S78,136.67,72.67,139.34Z"/><path class="cls-4" d="M35.33-18.66s26,20,16.67,33.33S34.67,30,29.33,48.67s2,42.67-5.33,50S10.67,98-4,85.34s-23.33-44-20.67-62.67S-13.33-19.33,2-24.66,35.33-18.66,35.33-18.66Z"/><path class="cls-5" d="M27.33-13.33S54-.66,44.67,10.67s-23.34,24-23.34,36,4.67,26-2,34-16.66,2-24-14.67S-17.33,11.34-6-2.66,20.67-16.66,27.33-13.33Z"/><path class="cls-5" d="M-6,13.34C-7.33,22-10,46,0,60.67s15.33,14,15.33.67,0-21.34,8-31.34,14-22.67,8-30-12.66-10.66-22-5.33S-4.67,4.67-6,13.34Z"/><path class="cls-5" d="M122,236s2,22.67-4.67,31.34-6.66,22.66-10,34S96.67,326,88,330s-16,27.34,1.33,35.34S116,376.67,126,362.67s30-24,24.67-36-10-24.67-4.67-39.33,11.33-36,4-49.34S121.33,218,122,236Z"/><path class="cls-5" d="M109.33,316c-.66,8-7.33,14-14.66,19.34S83.33,348,92.67,356s16.66,14.67,25.33,6.67,12-13.33,19.33-20,6.67-10.67,2-21.33-9.33-18.67-17.33-20S110,308,109.33,316Z"/><path class="cls-5" d="M119.33,310c-8,2.67-9.33,20.67-16,22.67s-10.66,10-4.66,16,13.33,8,20,0S132,338.67,130,328,127.33,307.34,119.33,310Z"/><path class="cls-5" d="M115.33,324c-2.66.67-2.66,7.34-8,10s-6,10.67,0,8.67S120.67,338,120,331.34,118,323.34,115.33,324Z"/><path class="cls-5" d="M128.67,238.67c-2,8,5.33,15.33.66,22S118,281.34,124,286s14.67.67,16.67-8.66,8-21.34,4-30.67S130.67,230.67,128.67,238.67Z"/><path class="cls-4" d="M142.67,170c-6,5.34,4,17.34-2.67,25.34s5.33,12,16,28,25.33,5.33,44,12.66,39.33,28.67,36,51.34,10.67,44,28.67,33.33S307.33,298,318,304s20,12.67,29.33,2,20-54,11.34-68S346,210,337.33,223.34s-22,28-33.33,19.33-30.67-36.67-50.67-38-37.33-16-46.66-21.33-17.34,3.33-30.67,2S148.67,164.67,142.67,170Z"/><path class="cls-5" d="M155.33,199.34c2.67,9.33,8,18.66,23.34,18.66s40.66,10.67,48,18.67S248,282,248,294.67s4.33,23,15,19,42.33-29.67,56.33-22.33,19.34-8,18-25.34-10-16.66-20.66-12.66-23.34-1.34-30-9.34-15.34-24.66-30-28.66-38-8-47.34-17.34-14-8-24.66-6-21.34,0-24.67-4.66S152.67,190,155.33,199.34Z"/><path class="cls-5" d="M166.67,202c2,6,4.66,8.67,16.66,10s17.34-7.33,12.67-11.33-13.33.67-18-.67S164.67,196,166.67,202Z"/><path class="cls-5" d="M222.67,222s14,6.67,18,20,16,30.67,14.66,38-3.33,18,3.34,18,16-8,27.33-11.33,18-7.33,27.33-4.67,13.34-6.66,11.34-14.66-11.34-8.67-22-6.67S281.33,255.34,274,248s-15.33-20-23.33-24-15.34-8-20.67-11.33S213.33,212.67,222.67,222Z"/><path class="cls-5" d="M252,253.34s8.67,10,8,19.33-3.33,18.66,2.67,17.33,16-6.67,15.33-14-5.33-12.66-10.67-21.33S247.33,243.34,252,253.34Z"/><path class="cls-4" d="M290.67,137.34c0,8-4,25-12,29s-16,23-2,31,26,33,38,33,23-30,28-42,19-34,16-43-6-21-14-23-17,12-24,14-11-17-19-15S290.67,129.34,290.67,137.34Z"/><path class="cls-5" d="M300,132.8c-1.82,2.42-3,4.24-3,12.14s9.11,7.28,11.53,3,3-6.07,0-10.93S301.86,130.37,300,132.8Z"/><path class="cls-5" d="M330.33,140.34s-4.66,16-13.33,20.66-20,9.34-26,9.34-14,2.66-14.67,11.33,5.34,13.33,11.34,16,16.66,16,18.66,22,12,11.33,18-3.33,8.67-28.67,16-40,11.34-20.67,8.67-30.67S336.33,127,330.33,140.34Z"/><path class="cls-5" d="M309.67,176.34s-15.34,1.33-20,5.33S287.67,191,295,195a28.27,28.27,0,0,1,14,16.67c2,6.67,8.67,4,12-6.67s3.33-16,10-28,10.67-18.66,7.33-24-11.33,5.34-14.66,12.67S311.67,175.67,309.67,176.34Z"/><path class="cls-5" d="M299.67,185.67c-.67,3.33,4,8.67,7.33,10s8,4.67,10-2.67,6.67-9.33,4.67-13.33-6.67,1.33-12,2.67S300.05,183.73,299.67,185.67Z"/><path class="cls-5" d="M271.33,114.67c-4.66,12.67-18.66,18.67-28.66,26.67s-27.34,18-16.67,29.33,27.33,22.67,31.33,4.67S274,162,278,144.67s6.67-30,15.33-34S310,102,314,108s-2,18,7.33,14,15.34-20.66,29.34-20.66,27.33.66,29.33-8-8-10-16.67-18S332.67,52.67,322,54.67s-28.67,10.67-34.67,22.67A370.2,370.2,0,0,0,271.33,114.67Z"/><path class="cls-5" d="M259.33,135.34S238.67,150,234.67,156s-4,11.34,2,15.34,11.33.66,15.33-10,10.67-8.67,16-17.34S263.33,132.67,259.33,135.34Z"/><path class="cls-5" d="M298.67,73.34c-5.34,6-13.34,20.66-10.67,26S303.33,94,312,98s4,18,9.33,14.67,7.34-12.67,17.34-15.33,29.33,1.33,30-6-9.34-10.67-17.34-16-18-11.34-24.66-12.67S304,67.34,298.67,73.34Z"/><path class="cls-5" d="M312.67,72c-7.34,2.67-21.34,13.34-12,16.67s14.66-6.67,17.33,0,6,8,14,3.33,20,2,20.67-4-12-9.33-18-14S320,69.34,312.67,72Z"/><path class="cls-5" d="M392.67,101.34c-7.34,2.66-17.34,10.66-24,18.66s1.33,16.67-1.34,28.67-12,36.67-12,47.33,4.67,15.34,10,30S376,261.34,370,273.34s1.33,30,15.33,14.66,33.34-32,22.67-41.33S381.33,219.34,386.67,200,408,141.34,408,122.67,400,98.67,392.67,101.34Z"/><path class="cls-5" d="M392,112.67c-4.67,2.67-18.67,6.67-16.67,19.33s0,20-4,27.34-12,30-7.33,41.33,9.33,18.67,10.67,28.67,10.66,12,10,2-6.67-22.67-2-36,10-32,14.66-50S396.67,110,392,112.67Z"/><path class="cls-5" d="M387.33,126c-2-2.66-6.66,4.67-6,16.67s-2.66,22-7.33,28-6,18-2.67,22.67,6-5.34,9.34-14,4.66-16.67,8-26S389.33,128.67,387.33,126Z"/><path class="cls-5" d="M389.69,246c-1.68.57-4.24,5.92-5,11.5s-2,7.79-5.33,11.82-5.85,10.61-3.05,13.48,6.14,1.73,14.53-10.92,8.94-15,6.15-20.71S391.37,245.44,389.69,246Z"/><path class="cls-5" d="M422.67,258.67c-3.34,16-24.67,42-38.67,45.33s-34.67,25.34-30,43.34,18,17.33,28.67,5.33,28-28,43.33-31.33S467.33,318,481.33,312s30,1.34,49.34,17.34S558,360.67,566,350s8-18.66,12.67-36.66,14-25.34,6-36.67-12-16.67-2.67-36S606,198,610,184s10.67-32.66-.67-46-32-25.33-36.66-30-18.67,6-27.34,20.67S526,162,507.33,163.34s-31.33,0-34,15.33,1.34,30.67-13.33,48.67S426,242.67,422.67,258.67Z"/><path class="cls-4" d="M498.67,187.34c-3.34,11.33-6.67,28-19.34,41.33s-34,14-39.33,28.67-19.33,38-30.67,45.33-42,42.67-24,34.67,32-24,50-26.67,28,2,43.34-7.33,30-15.34,44.66,3.33S548,350,559.33,338s20.67-38.66,16-50.66-14.66-20-9.33-37.34,26.67-40.66,34-59.33,7.33-40-5.33-52.67-31.34-28-37.34-10-20,44.67-31.33,46S502,176,498.67,187.34Z"/><path class="cls-5" d="M507.33,217.34c2,14.66-22,27.33-36,32S452.67,260.67,446.67,272s-12,27.34,3.33,24,34.67-8,45.33-14.66,26,.66,32,12.66,11.34,39.34,22.67,38,20-21.33,17.33-34.66-18.66-30-12-44,27.34-44.67,33.34-53.34,14-33.33,6-46.66S568,116,566,129.34s-3.33,39.33-13.33,46.66-17.34,14.67-28,14S505.33,202.67,507.33,217.34Z"/><path class="cls-5" d="M487.33,252c-7.54,4.32-19.33,10.67-24.66,14S450,278.67,456,283.34s20-8.67,29.33-8.67,14.67-2,16-11.33S496.67,246.67,487.33,252Z"/><path class="cls-5" d="M534,284.67c1.33,8.67,4,17.33,6.67,28s4,16,10,10.67,11.33-14,7.33-26.67-5.33-24.67-11.33-25.33S532.67,276,534,284.67Z"/><path class="cls-4" d="M571.33,148.67c-.66,10,.67,25.33-12,36s-40.66,7.33-39.33,24-3.33,40,6,46.67,20-16,30-24.67,28-27.33,32-42.67,1.33-18-2.67-30.66S572,138.67,571.33,148.67Z"/><path class="cls-5" d="M581.33,165.34c4.67,3.33,0,10.66-.66,20S576,199.34,568,208s-18.67,15.34-25.33,22.67-10,.67-10.67-13.33,8.67-16,20-18.67,20-18,21.33-22.67S576.67,162,581.33,165.34Z"/><path class="cls-5" d="M577.33,347.34s-3.33,14.66-12,18-4.66,16-.66,34.66,8,36,12.66,36.67-4-34,3.34-44.67,20-10.66,22-20-5.34-3.33-10.67-9.33-4-16-6-22.67S577.33,338,577.33,347.34Z"/></g></g></g></svg>