<svg xmlns="http://www.w3.org/2000/svg" viewBox="0 0 83.43 81.3"><defs><style>.cls-1{fill:#a7782c;}</style></defs><g id="Слой_2" data-name="Слой 2"><g id="Слой_1-2" data-name="Слой 1"><rect class="cls-1" width="7.38" height="81.3"/><rect class="cls-1" x="76.05" width="7.38" height="81.3"/><rect class="cls-1" x="15.37" width="7.38" height="81.3"/><polygon class="cls-1" points="52.58 29.57 52.58 0 45.2 0 45.2 29.57 38.76 29.57 38.76 0 31.37 0 31.37 36.96 31.37 36.96 38.76 36.96 45.2 36.96 52.58 36.96 52.58 36.96 52.58 29.57 52.58 29.57"/><polygon class="cls-1" points="52.58 51.73 52.58 81.3 45.2 81.3 45.2 51.73 38.76 51.73 38.76 81.3 31.37 81.3 31.37 44.34 31.37 44.34 38.76 44.34 45.2 44.34 52.58 44.34 52.58 44.34 52.58 51.73 52.58 51.73"/><rect class="cls-1" x="61.14" width="7.38" height="81.3"/></g></g></svg>